<?xml version="1.0" encoding="UTF-8"?>
<svg version="1.1" xmlns="http://www.w3.org/2000/svg" width="148" height="148">
<path d="M0 0 C1.31446106 -0.00615326 2.62892212 -0.01230652 3.98321533 -0.01864624 C5.4038565 -0.00485438 6.82449063 0.00967928 8.24511719 0.02490234 C9.71148517 0.02728875 11.17785624 0.02819167 12.64422607 0.02767944 C15.70734983 0.03079837 18.77000249 0.04729938 21.83300781 0.07421875 C25.76300233 0.10831804 29.69248302 0.11584346 33.62260818 0.11432838 C36.64574098 0.11487137 39.66876103 0.12582501 42.69185638 0.14033127 C44.14155983 0.14670113 45.59127605 0.15063861 47.04099274 0.15211868 C49.06122934 0.1564427 51.0814183 0.17551268 53.1015625 0.1953125 C54.25150696 0.2029361 55.40145142 0.21055969 56.58624268 0.21841431 C59.29199219 0.48583984 59.29199219 0.48583984 61.29199219 2.48583984 C62.24383777 4.89718199 63.10565673 7.27824814 63.91699219 9.73583984 C64.14644531 10.39197266 64.37589844 11.04810547 64.61230469 11.72412109 C65.96420603 15.77177809 66.54330033 19.22682817 66.29199219 23.48583984 C64.64199219 23.81583984 62.99199219 24.14583984 61.29199219 24.48583984 C61.297229 25.15115723 61.30246582 25.81647461 61.30786133 26.50195312 C61.32874471 29.53823896 61.34168839 32.57450963 61.35449219 35.61083984 C61.36287109 36.65755859 61.37125 37.70427734 61.37988281 38.78271484 C61.3958782 43.83725664 61.1627427 48.50130737 60.29199219 53.48583984 C60.19507816 56.59137999 60.24217266 59.69209205 60.29199219 62.79833984 C60.33743444 65.69982765 60.33943119 68.58316563 60.29199219 71.48583984 C59.96199219 71.81583984 59.63199219 72.14583984 59.29199219 72.48583984 C59.19219045 74.7548616 59.1623141 77.0271291 59.16699219 79.29833984 C59.16441406 80.54228516 59.16183594 81.78623047 59.15917969 83.06787109 C59.15358239 86.32796751 59.15358239 86.32796751 59.92480469 88.74755859 C60.04597656 89.32119141 60.16714844 89.89482422 60.29199219 90.48583984 C59.63199219 91.47583984 58.97199219 92.46583984 58.29199219 93.48583984 C58.17578714 96.84852344 58.24774934 100.14637366 58.37011719 103.50537109 C58.46443388 107.72604287 57.97870107 110.64841113 56.29199219 114.48583984 C48.85080229 114.60202857 41.40981007 114.69070304 33.96789455 114.7449007 C30.51171616 114.77092203 27.05616136 114.80617944 23.6003418 114.86303711 C19.62133418 114.92808802 15.64257324 114.95208229 11.66308594 114.97412109 C10.43053574 114.99992752 9.19798553 115.02573395 7.92808533 115.05232239 C-1.67959405 115.05544849 -1.67959405 115.05544849 -5.98950195 112.2434082 C-9.58069743 108.60061046 -9.58069743 108.60061046 -9.57519531 104.87646484 C-9.59324219 104.03986328 -9.61128906 103.20326172 -9.62988281 102.34130859 C-9.61441406 101.48150391 -9.59894531 100.62169922 -9.58300781 99.73583984 C-9.59824187 98.01185244 -9.61631333 96.28788696 -9.63769531 94.56396484 C-9.6297998 93.8050293 -9.6219043 93.04609375 -9.61376953 92.26416016 C-9.51060972 90.46033897 -9.51060972 90.46033897 -10.70800781 89.48583984 C-10.78230606 88.1544152 -10.79134115 86.81917318 -10.77050781 85.48583984 C-10.75890625 84.27927734 -10.75890625 84.27927734 -10.74707031 83.04833984 C-10.72102865 81.34000651 -10.69498698 79.63167318 -10.66894531 77.92333984 C-10.65734375 76.71677734 -10.65734375 76.71677734 -10.64550781 75.48583984 C-10.63390625 74.74333984 -10.62230469 74.00083984 -10.61035156 73.23583984 C-10.51458006 71.45706407 -10.51458006 71.45706407 -11.70800781 70.48583984 C-11.75597804 67.85347335 -11.75041926 65.24202363 -11.70800781 62.61083984 C-11.65482085 56.78565853 -11.84939023 51.12880571 -12.48535156 45.33349609 C-12.94934731 39.39923473 -12.78024766 33.43358757 -12.70800781 27.48583984 C-13.34738281 27.17646484 -13.98675781 26.86708984 -14.64550781 26.54833984 C-16.70800781 25.48583984 -16.70800781 25.48583984 -17.70800781 24.48583984 C-18.26069343 18.95898366 -16.58357403 14.57531601 -14.70800781 9.48583984 C-14.43988281 8.55771484 -14.17175781 7.62958984 -13.89550781 6.67333984 C-10.9129872 1.17922292 -5.84378403 -0.01444334 0 0 Z " fill="#5F312A" transform="translate(49.7080078125,16.51416015625)"/>
<path d="M0 0 C23.76 0 47.52 0 72 0 C72 0.66 72 1.32 72 2 C70.02 2 68.04 2 66 2 C66.00523682 2.66942627 66.01047363 3.33885254 66.01586914 4.02856445 C66.03692471 7.12319971 66.0497497 10.21781981 66.0625 13.3125 C66.07087891 14.36501953 66.07925781 15.41753906 66.08789062 16.50195312 C66.10657086 22.57302906 65.83717589 28.50783073 65.22045898 34.54663086 C64.93275936 37.7482848 64.93807714 40.91275159 65 44.125 C65.03685622 46.08298648 65.04789596 48.04225246 65 50 C64.67 50.33 64.34 50.66 64 51 C63.60333773 53.18019479 63.25684763 55.3696463 62.9375 57.5625 C62.76089844 58.76003906 62.58429688 59.95757812 62.40234375 61.19140625 C62.26957031 62.11824219 62.13679688 63.04507813 62 64 C61.505 62.02 61.505 62.02 61 60 C60.0925 60.0825 59.185 60.165 58.25 60.25 C55 60 55 60 53.3125 58.0625 C49.57720551 54.73102113 44.87298977 54.96132548 40 55 C39.01 55.495 39.01 55.495 38 56 C38 54.02 38 52.04 38 50 C35.36 50 32.72 50 30 50 C30 51.32 30 52.64 30 54 C29.175 54.2475 28.35 54.495 27.5 54.75 C24.76294574 55.72751938 22.52705065 56.75456099 20 58.125 C16.53628888 59.92346539 13.95008041 60.39500804 10 60 C10.33 60.99 10.66 61.98 11 63 C9.35 62.67 7.7 62.34 6 62 C6 60.35 6 58.7 6 57 C5.34 57 4.68 57 4 57 C4 59.31 4 61.62 4 64 C5.485 63.505 5.485 63.505 7 63 C7 63.66 7 64.32 7 65 C5.35 64.67 3.7 64.34 2 64 C1.505 56.575 1.505 56.575 1 49 C0.34 49 -0.32 49 -1 49 C-0.67 41.74 -0.34 34.48 0 27 C-0.66 27 -1.32 27 -2 27 C-2 26.34 -2 25.68 -2 25 C0 24 0 24 7 24 C7 16.41 7 8.82 7 1 C4.69 1 2.38 1 0 1 C0 0.67 0 0.34 0 0 Z " fill="#B77B6D" transform="translate(42,36)"/>
<path d="M0 0 C1.9214257 0.00033989 1.9214257 0.00033989 3.88166809 0.00068665 C5.26966709 0.01600425 6.65766248 0.03165219 8.0456543 0.04760742 C9.47339939 0.05320691 10.90115027 0.05747535 12.3289032 0.06047058 C16.07565393 0.07189168 19.82205241 0.10133477 23.56866455 0.13458252 C27.39623246 0.16534275 31.22385762 0.17898859 35.05151367 0.1940918 C42.55362689 0.22620756 50.0554505 0.2773702 57.55737305 0.34057617 C58.22921922 2.44309479 58.89468273 4.5476538 59.55737305 6.65307617 C59.92862305 7.82483398 60.29987305 8.9965918 60.68237305 10.20385742 C61.55737305 13.34057617 61.55737305 13.34057617 61.55737305 16.34057617 C40.76737305 16.67057617 19.97737305 17.00057617 -1.44262695 17.34057617 C-1.44262695 24.93057617 -1.44262695 32.52057617 -1.44262695 40.34057617 C-4.08262695 40.67057617 -6.72262695 41.00057617 -9.44262695 41.34057617 C-10.3254045 36.82242336 -10.54852198 32.56544923 -10.50512695 27.96557617 C-10.49610352 26.7203418 -10.48708008 25.47510742 -10.4777832 24.19213867 C-10.46038086 22.78061523 -10.46038086 22.78061523 -10.44262695 21.34057617 C-12.09262695 21.34057617 -13.74262695 21.34057617 -15.44262695 21.34057617 C-15.77262695 20.02057617 -16.10262695 18.70057617 -16.44262695 17.34057617 C-15.78262695 17.01057617 -15.12262695 16.68057617 -14.44262695 16.34057617 C-13.66099223 13.06042119 -13.09500564 9.76379637 -12.5168457 6.44213867 C-11.44262695 3.34057617 -11.44262695 3.34057617 -9.27815247 1.66801453 C-5.94001521 0.10528078 -3.67726814 -0.02175898 0 0 Z " fill="#824C42" transform="translate(50.442626953125,19.659423828125)"/>
<path d="M0 0 C23.76 0 47.52 0 72 0 C72 0.66 72 1.32 72 2 C70.02 2 68.04 2 66 2 C66.01160156 2.66644531 66.02320312 3.33289062 66.03515625 4.01953125 C66.10097366 10.74230945 65.72383639 17.317439 65 24 C64.06929688 23.9278125 63.13859375 23.855625 62.1796875 23.78125 C44.14978852 22.55178928 26.06039782 22.91694247 8 23 C8 16.07 8 9.14 8 2 C13.28 2 18.56 2 24 2 C16.08 1.67 8.16 1.34 0 1 C0 0.67 0 0.34 0 0 Z " fill="#BC8778" transform="translate(42,36)"/>
<path d="M0 0 C1.31446106 -0.00615326 2.62892212 -0.01230652 3.98321533 -0.01864624 C5.4038565 -0.00485438 6.82449063 0.00967928 8.24511719 0.02490234 C9.71148517 0.02728875 11.17785624 0.02819167 12.64422607 0.02767944 C15.70734983 0.03079837 18.77000249 0.04729938 21.83300781 0.07421875 C25.76300233 0.10831804 29.69248302 0.11584346 33.62260818 0.11432838 C36.64574098 0.11487137 39.66876103 0.12582501 42.69185638 0.14033127 C44.14155983 0.14670113 45.59127605 0.15063861 47.04099274 0.15211868 C49.06122934 0.1564427 51.0814183 0.17551268 53.1015625 0.1953125 C54.25150696 0.2029361 55.40145142 0.21055969 56.58624268 0.21841431 C59.29199219 0.48583984 59.29199219 0.48583984 61.29199219 2.48583984 C62.24383777 4.89718199 63.10565673 7.27824814 63.91699219 9.73583984 C64.14644531 10.39197266 64.37589844 11.04810547 64.61230469 11.72412109 C65.96420603 15.77177809 66.54330033 19.22682817 66.29199219 23.48583984 C64.64199219 23.81583984 62.99199219 24.14583984 61.29199219 24.48583984 C61.297229 25.15115723 61.30246582 25.81647461 61.30786133 26.50195312 C61.32874471 29.53823896 61.34168839 32.57450963 61.35449219 35.61083984 C61.36287109 36.65755859 61.37125 37.70427734 61.37988281 38.78271484 C61.3958782 43.83725664 61.1627427 48.50130737 60.29199219 53.48583984 C60.19507816 56.59137999 60.24217266 59.69209205 60.29199219 62.79833984 C60.33743444 65.69982765 60.33943119 68.58316563 60.29199219 71.48583984 C59.96199219 71.81583984 59.63199219 72.14583984 59.29199219 72.48583984 C59.19219045 74.7548616 59.1623141 77.0271291 59.16699219 79.29833984 C59.16441406 80.54228516 59.16183594 81.78623047 59.15917969 83.06787109 C59.15358239 86.32796751 59.15358239 86.32796751 59.92480469 88.74755859 C60.04597656 89.32119141 60.16714844 89.89482422 60.29199219 90.48583984 C59.63199219 91.47583984 58.97199219 92.46583984 58.29199219 93.48583984 C58.17578714 96.84852344 58.24774934 100.14637366 58.37011719 103.50537109 C58.46443388 107.72604287 57.97870107 110.64841113 56.29199219 114.48583984 C48.85080229 114.60202857 41.40981007 114.69070304 33.96789455 114.7449007 C30.51171616 114.77092203 27.05616136 114.80617944 23.6003418 114.86303711 C19.62133418 114.92808802 15.64257324 114.95208229 11.66308594 114.97412109 C10.43053574 114.99992752 9.19798553 115.02573395 7.92808533 115.05232239 C-1.67959405 115.05544849 -1.67959405 115.05544849 -5.98950195 112.2434082 C-9.58069743 108.60061046 -9.58069743 108.60061046 -9.57519531 104.87646484 C-9.59324219 104.03986328 -9.61128906 103.20326172 -9.62988281 102.34130859 C-9.61441406 101.48150391 -9.59894531 100.62169922 -9.58300781 99.73583984 C-9.59824187 98.01185244 -9.61631333 96.28788696 -9.63769531 94.56396484 C-9.6297998 93.8050293 -9.6219043 93.04609375 -9.61376953 92.26416016 C-9.51060972 90.46033897 -9.51060972 90.46033897 -10.70800781 89.48583984 C-10.78230606 88.1544152 -10.79134115 86.81917318 -10.77050781 85.48583984 C-10.75890625 84.27927734 -10.75890625 84.27927734 -10.74707031 83.04833984 C-10.72102865 81.34000651 -10.69498698 79.63167318 -10.66894531 77.92333984 C-10.65734375 76.71677734 -10.65734375 76.71677734 -10.64550781 75.48583984 C-10.63390625 74.74333984 -10.62230469 74.00083984 -10.61035156 73.23583984 C-10.51458006 71.45706407 -10.51458006 71.45706407 -11.70800781 70.48583984 C-11.75597804 67.85347335 -11.75041926 65.24202363 -11.70800781 62.61083984 C-11.65482085 56.78565853 -11.84939023 51.12880571 -12.48535156 45.33349609 C-12.94934731 39.39923473 -12.78024766 33.43358757 -12.70800781 27.48583984 C-13.34738281 27.17646484 -13.98675781 26.86708984 -14.64550781 26.54833984 C-16.70800781 25.48583984 -16.70800781 25.48583984 -17.70800781 24.48583984 C-18.26069343 18.95898366 -16.58357403 14.57531601 -14.70800781 9.48583984 C-14.43988281 8.55771484 -14.17175781 7.62958984 -13.89550781 6.67333984 C-10.9129872 1.17922292 -5.84378403 -0.01444334 0 0 Z M-10.70800781 6.48583984 C-11.88349594 9.61169476 -11.88349594 9.61169476 -12.39550781 13.11083984 C-12.7796709 15.2461267 -13.20509801 17.37536289 -13.70800781 19.48583984 C-14.36800781 19.81583984 -15.02800781 20.14583984 -15.70800781 20.48583984 C-15.37800781 21.80583984 -15.04800781 23.12583984 -14.70800781 24.48583984 C-13.05800781 24.48583984 -11.40800781 24.48583984 -9.70800781 24.48583984 C-9.70800781 31.74583984 -9.70800781 39.00583984 -9.70800781 46.48583984 C-9.04800781 46.48583984 -8.38800781 46.48583984 -7.70800781 46.48583984 C-8.03800781 53.74583984 -8.36800781 61.00583984 -8.70800781 68.48583984 C-8.04800781 68.48583984 -7.38800781 68.48583984 -6.70800781 68.48583984 C-6.37800781 73.43583984 -6.04800781 78.38583984 -5.70800781 83.48583984 C-4.05800781 83.81583984 -2.40800781 84.14583984 -0.70800781 84.48583984 C-1.03800781 83.82583984 -1.36800781 83.16583984 -1.70800781 82.48583984 C-2.69800781 82.98083984 -2.69800781 82.98083984 -3.70800781 83.48583984 C-3.70800781 81.17583984 -3.70800781 78.86583984 -3.70800781 76.48583984 C-3.04800781 76.48583984 -2.38800781 76.48583984 -1.70800781 76.48583984 C-1.70800781 78.13583984 -1.70800781 79.78583984 -1.70800781 81.48583984 C-1.37800781 81.48583984 -1.04800781 81.48583984 -0.70800781 81.48583984 C-0.37800781 83.13583984 -0.04800781 84.78583984 0.29199219 86.48583984 C-2.01800781 86.48583984 -4.32800781 86.48583984 -6.70800781 86.48583984 C-6.68517843 89.90398005 -6.60783747 93.31878698 -6.52050781 96.73583984 C-6.51470703 97.70392578 -6.50890625 98.67201172 -6.50292969 99.66943359 C-6.47392578 100.60400391 -6.44492187 101.53857422 -6.41503906 102.50146484 C-6.39147339 103.78972168 -6.39147339 103.78972168 -6.36743164 105.10400391 C-5.83098426 107.62323544 -5.83098426 107.62323544 -3.94628906 109.77294922 C1.1531392 112.47029457 6.13429696 111.97602484 11.81152344 111.87646484 C13.02523117 111.87080505 14.2389389 111.86514526 15.48942566 111.85931396 C19.36151763 111.83694427 23.23268042 111.78674366 27.10449219 111.73583984 C29.73143194 111.71577575 32.35838621 111.69752483 34.98535156 111.68115234 C41.42125583 111.63707702 47.85646653 111.56804258 54.29199219 111.48583984 C54.29199219 104.88583984 54.29199219 98.28583984 54.29199219 91.48583984 C54.95199219 91.48583984 55.61199219 91.48583984 56.29199219 91.48583984 C56.28675537 90.86539795 56.28151855 90.24495605 56.27612305 89.60571289 C56.25533753 86.79493217 56.24232702 83.98416764 56.22949219 81.17333984 C56.22111328 80.196875 56.21273437 79.22041016 56.20410156 78.21435547 C56.20087891 77.2765625 56.19765625 76.33876953 56.19433594 75.37255859 C56.18909912 74.50848389 56.1838623 73.64440918 56.1784668 72.75415039 C56.29199219 70.48583984 56.29199219 70.48583984 57.29199219 67.48583984 C57.33727077 65.86147078 57.33055699 64.23538217 57.29199219 62.61083984 C57.25014303 58.58808988 57.413142 54.67757581 57.79199219 50.67333984 C58.62810762 40.96969032 58.37715373 31.21652876 58.29199219 21.48583984 C60.27199219 21.48583984 62.25199219 21.48583984 64.29199219 21.48583984 C64.29199219 20.82583984 64.29199219 20.16583984 64.29199219 19.48583984 C63.63199219 19.48583984 62.97199219 19.48583984 62.29199219 19.48583984 C62.17082031 18.83357422 62.04964844 18.18130859 61.92480469 17.50927734 C61.75722656 16.63529297 61.58964844 15.76130859 61.41699219 14.86083984 C61.25457031 14.00232422 61.09214844 13.14380859 60.92480469 12.25927734 C60.23906666 9.25388228 59.28318853 6.40299065 58.29199219 3.48583984 C50.03381465 3.4162622 41.77576004 3.3629894 33.51736164 3.33040333 C29.68244876 3.31476189 25.84773674 3.2935518 22.01293945 3.25952148 C18.31061522 3.22687317 14.60848394 3.20897538 10.90602684 3.20120811 C9.49504752 3.19567438 8.08407849 3.1848682 6.67318153 3.16864967 C4.69376592 3.14680535 2.71415526 3.14561384 0.73461914 3.14526367 C-0.95415596 3.13527092 -0.95415596 3.13527092 -2.67704773 3.12507629 C-6.11391819 3.5341538 -7.98003669 4.37784555 -10.70800781 6.48583984 Z " fill="#050202" transform="translate(49.7080078125,16.51416015625)"/>
<path d="M0 0 C14.85 0 29.7 0 45 0 C45 0.33 45 0.66 45 1 C15.78593272 2.14984709 15.78593272 2.14984709 2 2 C1.67 8.6 1.34 15.2 1 22 C3.7225 21.7525 3.7225 21.7525 6.5 21.5 C24.10320211 20.27311016 41.4992148 20.83176113 59 23 C58.67 27.29 58.34 31.58 58 36 C57.67 36 57.34 36 57 36 C57 32.37 57 28.74 57 25 C55.37465332 25.00523682 53.74930664 25.01047363 52.07470703 25.01586914 C46.06266833 25.03392593 40.05063204 25.04543452 34.03857422 25.05493164 C31.43310137 25.0599703 28.82763137 25.0668013 26.22216797 25.07543945 C22.48404236 25.08752544 18.74595403 25.09323288 15.0078125 25.09765625 C13.83695099 25.10281754 12.66608948 25.10797882 11.45974731 25.11329651 C10.37877777 25.11337204 9.29780823 25.11344757 8.18408203 25.11352539 C6.75178757 25.11685631 6.75178757 25.11685631 5.29055786 25.12025452 C3 25 3 25 1 24 C1 30.93 1 37.86 1 45 C3.46210937 44.97679687 5.92421875 44.95359375 8.4609375 44.9296875 C10.91373177 44.91397649 13.36651989 44.90189744 15.81933594 44.89013672 C17.49091201 44.88023629 19.16247155 44.86671247 20.83398438 44.84912109 C32.70700073 44.72752996 44.22906415 45.43018793 56 47 C56 44.69 56 42.38 56 40 C56.33 40 56.66 40 57 40 C57.19412181 41.47831221 57.38012131 42.95769316 57.5625 44.4375 C57.71912109 45.67306641 57.71912109 45.67306641 57.87890625 46.93359375 C57.93884766 47.95646484 57.93884766 47.95646484 58 49 C57.67 49.33 57.34 49.66 57 50 C56.60333773 52.18019479 56.25684763 54.3696463 55.9375 56.5625 C55.76089844 57.76003906 55.58429688 58.95757812 55.40234375 60.19140625 C55.26957031 61.11824219 55.13679688 62.04507813 55 63 C54.505 61.02 54.505 61.02 54 59 C53.0925 59.0825 52.185 59.165 51.25 59.25 C48 59 48 59 46.3125 57.0625 C42.57720551 53.73102113 37.87298977 53.96132548 33 54 C32.01 54.495 32.01 54.495 31 55 C31 53.02 31 51.04 31 49 C28.36 49 25.72 49 23 49 C23 50.32 23 51.64 23 53 C22.175 53.2475 21.35 53.495 20.5 53.75 C17.76294574 54.72751938 15.52705065 55.75456099 13 57.125 C9.53628888 58.92346539 6.95008041 59.39500804 3 59 C3.33 59.99 3.66 60.98 4 62 C2.35 61.67 0.7 61.34 -1 61 C-1 59.35 -1 57.7 -1 56 C-1.66 56 -2.32 56 -3 56 C-3 58.31 -3 60.62 -3 63 C-1.515 62.505 -1.515 62.505 0 62 C0 62.66 0 63.32 0 64 C-1.65 63.67 -3.3 63.34 -5 63 C-5.495 55.575 -5.495 55.575 -6 48 C-6.66 48 -7.32 48 -8 48 C-7.67 40.74 -7.34 33.48 -7 26 C-7.66 26 -8.32 26 -9 26 C-9 25.34 -9 24.68 -9 24 C-7 23 -7 23 0 23 C0 15.41 0 7.82 0 0 Z " fill="#975D52" transform="translate(49,37)"/>
<path d="M0 0 C0.33 1.32 0.66 2.64 1 4 C1.66 4 2.32 4 3 4 C3 2.68 3 1.36 3 0 C5.64 0 8.28 0 11 0 C11.495 2.475 11.495 2.475 12 5 C12.33 4.67 12.66 4.34 13 4 C14.85772162 4.08984301 16.71247985 4.24611861 18.5625 4.4375 C19.57441406 4.53933594 20.58632812 4.64117187 21.62890625 4.74609375 C22.41136719 4.82988281 23.19382813 4.91367188 24 5 C24.495 6.485 24.495 6.485 25 8 C28.63 8.66 32.26 9.32 36 10 C35.67 12.97 35.34 15.94 35 19 C14.87 19 -5.26 19 -26 19 C-26 18.34 -26 17.68 -26 17 C-23.69 17 -21.38 17 -19 17 C-19 15.68 -19 14.36 -19 13 C-18.34 12.67 -17.68 12.34 -17 12 C-17 11.34 -17 10.68 -17 10 C-15.4840625 9.5978125 -15.4840625 9.5978125 -13.9375 9.1875 C-11.26500397 8.43399706 -8.7815233 7.5139156 -6.25 6.375 C-3 5 -3 5 0 5 C0 3.35 0 1.7 0 0 Z " fill="#7F4940" transform="translate(69,86)"/>
<path d="M0 0 C23.76 0 47.52 0 72 0 C72 0.66 72 1.32 72 2 C70.02 2 68.04 2 66 2 C66.01160156 2.66644531 66.02320312 3.33289062 66.03515625 4.01953125 C66.10108243 10.75341967 65.69591018 17.30186448 65 24 C58.73 23.67 52.46 23.34 46 23 C47.32 22.34 48.64 21.68 50 21 C50 20.01 50 19.02 50 18 C51.98 17.67 53.96 17.34 56 17 C56.09087891 15.95199219 56.09087891 15.95199219 56.18359375 14.8828125 C56.26738281 13.97273438 56.35117188 13.06265625 56.4375 12.125 C56.51871094 11.22007813 56.59992188 10.31515625 56.68359375 9.3828125 C57 7 57 7 58 5 C58.99 4.67 59.98 4.34 61 4 C49.78 3.67 38.56 3.34 27 3 C27 3.66 27 4.32 27 5 C26.34 5 25.68 5 25 5 C24.95101562 5.71027344 24.90203125 6.42054687 24.8515625 7.15234375 C24.77679688 8.07144531 24.70203125 8.99054687 24.625 9.9375 C24.55539063 10.85402344 24.48578125 11.77054688 24.4140625 12.71484375 C24.27742188 13.46894531 24.14078125 14.22304688 24 15 C23.01 15.495 23.01 15.495 22 16 C22 12.37 22 8.74 22 5 C20.02 5 18.04 5 16 5 C16.33 7.64 16.66 10.28 17 13 C13 13 13 13 10 12 C10 15.63 10 19.26 10 23 C9.34 23 8.68 23 8 23 C8 16.07 8 9.14 8 2 C13.28 2 18.56 2 24 2 C16.08 1.67 8.16 1.34 0 1 C0 0.67 0 0.34 0 0 Z " fill="#B48376" transform="translate(42,36)"/>
<path d="M0 0 C2.87506421 -0.02712325 5.74986908 -0.04689851 8.625 -0.0625 C9.83736328 -0.07506836 9.83736328 -0.07506836 11.07421875 -0.08789062 C12.26337891 -0.09272461 12.26337891 -0.09272461 13.4765625 -0.09765625 C14.5605835 -0.10551147 14.5605835 -0.10551147 15.66650391 -0.11352539 C18.46571381 0.02265714 21.2356107 0.53926845 24 1 C24 5.95 24 10.9 24 16 C16.08 16 8.16 16 0 16 C0 10.72 0 5.44 0 0 Z " fill="#73473F" transform="translate(64,112)"/>
<path d="M0 0 C14.85 0 29.7 0 45 0 C45 0.33 45 0.66 45 1 C15.78593272 2.14984709 15.78593272 2.14984709 2 2 C1.67 8.6 1.34 15.2 1 22 C3.7225 21.7525 3.7225 21.7525 6.5 21.5 C24.10320211 20.27311016 41.4992148 20.83176113 59 23 C58.67 27.29 58.34 31.58 58 36 C57.67 36 57.34 36 57 36 C57 32.37 57 28.74 57 25 C55.37465332 25.00523682 53.74930664 25.01047363 52.07470703 25.01586914 C46.06266833 25.03392593 40.05063204 25.04543452 34.03857422 25.05493164 C31.43310137 25.0599703 28.82763137 25.0668013 26.22216797 25.07543945 C22.48404236 25.08752544 18.74595403 25.09323288 15.0078125 25.09765625 C13.83695099 25.10281754 12.66608948 25.10797882 11.45974731 25.11329651 C10.37877777 25.11337204 9.29780823 25.11344757 8.18408203 25.11352539 C6.75178757 25.11685631 6.75178757 25.11685631 5.29055786 25.12025452 C3 25 3 25 1 24 C1 27.96 1 31.92 1 36 C0.67 36 0.34 36 0 36 C0 32.37 0 28.74 0 25 C-1.98 25.33 -3.96 25.66 -6 26 C-5.67 26.66 -5.34 27.32 -5 28 C-3.68 28 -2.36 28 -1 28 C-1 31.63 -1 35.26 -1 39 C-1.33 39 -1.66 39 -2 39 C-2 37.35 -2 35.7 -2 34 C-2.66 34 -3.32 34 -4 34 C-4 36.31 -4 38.62 -4 41 C-2.515 40.505 -2.515 40.505 -1 40 C-1 40.66 -1 41.32 -1 42 C-2.65 42 -4.3 42 -6 42 C-6.85298376 38.32612505 -7.10789471 34.9552607 -7.0625 31.1875 C-7.05347656 30.21167969 -7.04445312 29.23585938 -7.03515625 28.23046875 C-7.02355469 27.49441406 -7.01195312 26.75835937 -7 26 C-7.66 26 -8.32 26 -9 26 C-9 25.34 -9 24.68 -9 24 C-7 23 -7 23 0 23 C0 15.41 0 7.82 0 0 Z " fill="#8C554B" transform="translate(49,37)"/>
<path d="M0 0 C0.99 0.33 1.98 0.66 3 1 C3 1.66 3 2.32 3 3 C3.66 3.33 4.32 3.66 5 4 C4.01 4.33 3.02 4.66 2 5 C2.33 5.99 2.66 6.98 3 8 C2.67 8.66 2.34 9.32 2 10 C5.11596912 9.33372488 5.11596912 9.33372488 6.16796875 6.93359375 C6.50441406 6.10988281 6.84085938 5.28617187 7.1875 4.4375 C7.53167969 3.61121094 7.87585937 2.78492187 8.23046875 1.93359375 C8.48441406 1.29550781 8.73835938 0.65742187 9 0 C14.44433259 -0.02479204 19.88863203 -0.04290359 25.33300781 -0.05493164 C27.18359958 -0.05994811 29.0341874 -0.06676282 30.88476562 -0.07543945 C33.55079117 -0.0876229 36.21676412 -0.09325528 38.8828125 -0.09765625 C39.70492218 -0.10281754 40.52703186 -0.10797882 41.37405396 -0.11329651 C45.69923396 -0.11371514 49.74008134 0.13423594 54 1 C54.05437607 2.58294782 54.09296271 4.16644256 54.125 5.75 C54.14820313 6.63171875 54.17140625 7.5134375 54.1953125 8.421875 C53.99139502 11.1135858 53.36551721 12.69904974 52 15 C52 13.68 52 12.36 52 11 C51.0925 11.0825 50.185 11.165 49.25 11.25 C46 11 46 11 44.3125 9.0625 C40.57720551 5.73102113 35.87298977 5.96132548 31 6 C30.01 6.495 30.01 6.495 29 7 C29 5.02 29 3.04 29 1 C26.36 1 23.72 1 21 1 C21 2.32 21 3.64 21 5 C19.7625 5.37125 19.7625 5.37125 18.5 5.75 C15.76294574 6.72751938 13.52705065 7.75456099 11 9.125 C7.53628888 10.92346539 4.95008041 11.39500804 1 11 C1.33 11.99 1.66 12.98 2 14 C1.34 14 0.68 14 0 14 C0 9.38 0 4.76 0 0 Z M5 1 C5.99 1.495 5.99 1.495 7 2 C6.01 2.495 6.01 2.495 5 3 C5 2.34 5 1.68 5 1 Z " fill="#B98072" transform="translate(51,85)"/>
<path d="M0 0 C8.58 0 17.16 0 26 0 C30 12.625 30 12.625 30 16 C27.03 15.505 27.03 15.505 24 15 C22.89771304 10.59085217 22.92345464 6.51617599 23 2 C22.34 1.67 21.68 1.34 21 1 C21.2475 2.2375 21.2475 2.2375 21.5 3.5 C22.05896045 7.41272317 22.06807187 11.05183173 22 15 C21.01 15 20.02 15 19 15 C18.67 12.36 18.34 9.72 18 7 C17.67 9.31 17.34 11.62 17 14 C16.01 14.33 15.02 14.66 14 15 C13.67 11.37 13.34 7.74 13 4 C12.67 7.63 12.34 11.26 12 15 C11.01 15 10.02 15 9 15 C9 10.38 9 5.76 9 1 C7.66098208 2.11126659 7.66098208 2.11126659 7.90234375 4.94140625 C7.91394531 6.13636719 7.92554687 7.33132812 7.9375 8.5625 C7.94652344 9.76003906 7.95554687 10.95757812 7.96484375 12.19140625 C7.97644531 13.11824219 7.98804687 14.04507813 8 15 C5.36 15 2.72 15 0 15 C0 10.05 0 5.1 0 0 Z " fill="#6E3C32" transform="translate(82,20)"/>
<path d="M0 0 C7.06583398 -0.02468579 14.13164296 -0.04285324 21.19750977 -0.05493164 C23.60213661 -0.05996598 26.00676038 -0.06679386 28.41137695 -0.07543945 C31.86410275 -0.08754429 35.31678814 -0.09323726 38.76953125 -0.09765625 C39.84773636 -0.10281754 40.92594147 -0.10797882 42.03681946 -0.11329651 C43.53803596 -0.11340981 43.53803596 -0.11340981 45.06958008 -0.11352539 C45.95116287 -0.115746 46.83274567 -0.11796661 47.74104309 -0.12025452 C50 0 50 0 53 1 C52.67 6.28 52.34 11.56 52 17 C49.36 17 46.72 17 44 17 C44 11.72 44 6.44 44 1 C31.79 1 19.58 1 7 1 C7 6.28 7 11.56 7 17 C4.69 17 2.38 17 0 17 C0 11.39 0 5.78 0 0 Z " fill="#8A5247" transform="translate(51,106)"/>
<path d="M0 0 C1.74991334 -0.02715383 3.49994945 -0.04646551 5.25 -0.0625 C6.71179688 -0.07990234 6.71179688 -0.07990234 8.203125 -0.09765625 C10.65758678 -0.01195577 12.66168914 0.29293934 15 1 C15.28307925 8.24997422 14.50974035 14.90961228 13 22 C12.01 21.34 11.02 20.68 10 20 C10 19.34 10 18.68 10 18 C6.7 17.67 3.4 17.34 0 17 C-0.84681133 11.91913204 -1.09038099 7.15171623 -1 2 C0.299375 2.020625 1.59875 2.04125 2.9375 2.0625 C4.29165633 2.08399454 5.64756083 2.07148199 7 2 C7.33 1.67 7.66 1.34 8 1 C5.36 1 2.72 1 0 1 C0 0.67 0 0.34 0 0 Z " fill="#B57B6D" transform="translate(90,61)"/>
<path d="M0 0 C2 3 2 3 2 6 C1.28326614 5.83923477 0.56653229 5.67846954 -0.17192078 5.51283264 C-2.92161932 5.01421324 -5.45835536 4.84315512 -8.24926758 4.79467773 C-9.26994827 4.77473251 -10.29062897 4.75478729 -11.34223938 4.73423767 C-12.4319957 4.71752518 -13.52175201 4.70081268 -14.64453125 4.68359375 C-15.7694548 4.66281265 -16.89437836 4.64203156 -18.0533905 4.62062073 C-21.6396994 4.55534208 -25.22608027 4.49634101 -28.8125 4.4375 C-31.24675217 4.39429417 -33.68099712 4.35067922 -36.11523438 4.30664062 C-42.07674953 4.19968286 -48.03833695 4.09835432 -54 4 C-54 9.61 -54 15.22 -54 21 C-55.98 20.67 -57.96 20.34 -60 20 C-60 14.39 -60 8.78 -60 3 C-56.00351071 2.33391845 -52.8358704 1.87432394 -48.90014648 1.87060547 C-47.45350868 1.86587723 -47.45350868 1.86587723 -45.97764587 1.86105347 C-44.43990257 1.86408981 -44.43990257 1.86408981 -42.87109375 1.8671875 C-41.8038356 1.86623077 -40.73657745 1.86527405 -39.63697815 1.86428833 C-37.38697246 1.86360953 -35.13696479 1.86544286 -32.88696289 1.86962891 C-29.44608156 1.87498664 -26.00533044 1.86967099 -22.56445312 1.86328125 C-20.37499971 1.86394198 -18.18554638 1.86522304 -15.99609375 1.8671875 C-14.96890732 1.86516327 -13.94172089 1.86313904 -12.88340759 1.86105347 C-11.44149803 1.86578171 -11.44149803 1.86578171 -9.97045898 1.87060547 C-9.12917953 1.87140106 -8.28790009 1.87219666 -7.42112732 1.87301636 C-4.86635617 2.00700937 -2.49322089 2.43981116 0 3 C0 2.01 0 1.02 0 0 Z " fill="#4F241F" transform="translate(104,102)"/>
<path d="M0 0 C0 7.59 0 15.18 0 23 C-3.96 23.495 -3.96 23.495 -8 24 C-8.88277755 19.48184719 -9.10589503 15.22487306 -9.0625 10.625 C-9.05347656 9.37976562 -9.04445312 8.13453125 -9.03515625 6.8515625 C-9.01775391 5.44003906 -9.01775391 5.44003906 -9 4 C-9.99 3.67 -10.98 3.34 -12 3 C-7.44465464 -0.31297844 -6.28991846 0 0 0 Z " fill="#60302D" transform="translate(49,37)"/>
<path d="M0 0 C-0.33 4.29 -0.66 8.58 -1 13 C-1.33 13 -1.66 13 -2 13 C-2 9.37 -2 5.74 -2 2 C-4.43802002 2.01571045 -4.43802002 2.01571045 -6.92529297 2.03173828 C-12.93731496 2.06785177 -18.94932731 2.09086891 -24.96142578 2.10986328 C-27.56691091 2.11994064 -30.17238469 2.1336027 -32.77783203 2.15087891 C-36.51597899 2.17505102 -40.25397685 2.1864656 -43.9921875 2.1953125 C-45.74847977 2.21079636 -45.74847977 2.21079636 -47.54025269 2.22659302 C-49.161707 2.22681961 -49.161707 2.22681961 -50.81591797 2.22705078 C-51.77078094 2.231492 -52.72564392 2.23593323 -53.70944214 2.24050903 C-56 2 -56 2 -58 0 C-38.87100061 -3.77191537 -19.2184786 -2.38105045 0 0 Z " fill="#905146" transform="translate(108,60)"/>
<path d="M0 0 C5.28 0 10.56 0 16 0 C15.34 0.66 14.68 1.32 14 2 C13.01 2 12.02 2 11 2 C10.93941406 2.69867188 10.87882812 3.39734375 10.81640625 4.1171875 C10.73261719 5.02726562 10.64882812 5.93734375 10.5625 6.875 C10.48128906 7.77992187 10.40007812 8.68484375 10.31640625 9.6171875 C10 12 10 12 9 14 C2.84765625 14.09765625 2.84765625 14.09765625 1 14 C0 13 0 13 -0.09765625 10.05859375 C-0.06510417 6.70572917 -0.03255208 3.35286458 0 0 Z " fill="#CDA694" transform="translate(89,39)"/>
<path d="M0 0 C3.3 0 6.6 0 10 0 C10 4.95 10 9.9 10 15 C9.67 15 9.34 15 9 15 C9 10.38 9 5.76 9 1 C6.36 1 3.72 1 1 1 C1.0721875 1.91523437 1.144375 2.83046875 1.21875 3.7734375 C1.3115625 4.96195312 1.404375 6.15046875 1.5 7.375 C1.5928125 8.55835937 1.685625 9.74171875 1.78125 10.9609375 C1.90195454 12.63786843 2 14.31873056 2 16 C3.2375 15.9175 4.475 15.835 5.75 15.75 C9.10506698 15.7262052 9.75447904 15.80358323 12.5 18 C12.995 18.66 13.49 19.32 14 20 C15.45732062 13.35009036 16.45136137 6.7857936 17 0 C17.33 0 17.66 0 18 0 C18.02726927 2.35424675 18.04696719 4.70816962 18.0625 7.0625 C18.07410156 8.37347656 18.08570312 9.68445313 18.09765625 11.03515625 C18 15 18 15 17 22 C11.06 21.67 5.12 21.34 -1 21 C-1.33 19.02 -1.66 17.04 -2 15 C-1.34 15 -0.68 15 0 15 C0 10.05 0 5.1 0 0 Z " fill="#C39585" transform="translate(88,62)"/>
<path d="M0 0 C6.27 0.33 12.54 0.66 19 1 C19 1.66 19 2.32 19 3 C18.34 3 17.68 3 17 3 C16.95101562 3.71027344 16.90203125 4.42054687 16.8515625 5.15234375 C16.77679688 6.07144531 16.70203125 6.99054687 16.625 7.9375 C16.55539063 8.85402344 16.48578125 9.77054688 16.4140625 10.71484375 C16.27742188 11.46894531 16.14078125 12.22304688 16 13 C15.01 13.495 15.01 13.495 14 14 C14 10.37 14 6.74 14 3 C12.02 3 10.04 3 8 3 C8.33 5.64 8.66 8.28 9 11 C5 11 5 11 2 10 C2 13.63 2 17.26 2 21 C1.34 21 0.68 21 0 21 C0 14.07 0 7.14 0 0 Z " fill="#C49D8A" transform="translate(50,38)"/>
<path d="M0 0 C4.95 0.33 9.9 0.66 15 1 C15 5.62 15 10.24 15 15 C14.67 15 14.34 15 14 15 C14 11.04 14 7.08 14 3 C12.02 3 10.04 3 8 3 C8 3.99 8 4.98 8 6 C9.32 6.33 10.64 6.66 12 7 C10.68 7 9.36 7 8 7 C8 9.97 8 12.94 8 16 C7.67 16 7.34 16 7 16 C6.67 13.69 6.34 11.38 6 9 C5.67 10.98 5.34 12.96 5 15 C4.34 15 3.68 15 3 15 C2.67 16.98 2.34 18.96 2 21 C1.34 21 0.68 21 0 21 C0 14.07 0 7.14 0 0 Z " fill="#C49989" transform="translate(50,61)"/>
<path d="M0 0 C3.3 0 6.6 0 10 0 C10 4.62 10 9.24 10 14 C9.34 14 8.68 14 8 14 C8 13.34 8 12.68 8 12 C7.071875 11.7834375 7.071875 11.7834375 6.125 11.5625 C4 11 4 11 2 10 C2.33 11.65 2.66 13.3 3 15 C2.01 15 1.02 15 0 15 C0 10.05 0 5.1 0 0 Z " fill="#C9A796" transform="translate(72,62)"/>
<path d="M0 0 C0.66 0 1.32 0 2 0 C2.33 0.99 2.66 1.98 3 3 C5.475 3.495 5.475 3.495 8 4 C8 4.66 8 5.32 8 6 C6.14375 5.938125 6.14375 5.938125 4.25 5.875 C0.98362038 5.86341709 -1.2146947 6.1431298 -4 8 C-2.329375 7.9690625 -2.329375 7.9690625 -0.625 7.9375 C3 8 3 8 5 9 C5 9.66 5 10.32 5 11 C0.28580561 11.76966439 -4.22128052 12.28110115 -9 12 C-9.66 11.34 -10.32 10.68 -11 10 C-10.34 10 -9.68 10 -9 10 C-10.9254644 7.7763932 -10.9254644 7.7763932 -14 7 C-13.67 5.68 -13.34 4.36 -13 3 C-11.02 2.67 -9.04 2.34 -7 2 C-7 5 -7 5 -8 7 C-6.02463255 6.65213292 -6.02463255 6.65213292 -4 6 C-3.67 5.34 -3.34 4.68 -3 4 C-1.5625 1.875 -1.5625 1.875 0 0 Z " fill="#683E34" transform="translate(79,114)"/>
<path d="M0 0 C12.21 0 24.42 0 37 0 C37 5.28 37 10.56 37 16 C39.64 16 42.28 16 45 16 C45 13.36 45 10.72 45 8 C45.33 8 45.66 8 46 8 C46 12.29 46 16.58 46 21 C42.37 21 38.74 21 35 21 C35.33 14.4 35.66 7.8 36 1 C24.12 1 12.24 1 0 1 C0 0.67 0 0.34 0 0 Z " fill="#6B3930" transform="translate(58,107)"/>
<path d="M0 0 C2.64 0 5.28 0 8 0 C8 4.62 8 9.24 8 14 C5.36 14 2.72 14 0 14 C0 9.38 0 4.76 0 0 Z " fill="#7A473E" transform="translate(72,86)"/>
<path d="M0 0 C2.64 0 5.28 0 8 0 C8.02685938 2.14576637 8.04633088 4.29162645 8.0625 6.4375 C8.07410156 7.63246094 8.08570312 8.82742187 8.09765625 10.05859375 C8 13 8 13 7 14 C4 14.125 4 14.125 1 14 C0 13 0 13 -0.09765625 10.05859375 C-0.08605469 8.86363281 -0.07445313 7.66867188 -0.0625 6.4375 C-0.05347656 5.23996094 -0.04445313 4.04242188 -0.03515625 2.80859375 C-0.02355469 1.88175781 -0.01195313 0.95492187 0 0 Z " fill="#B27F72" transform="translate(89,63)"/>
<path d="M0 0 C0 4.95 0 9.9 0 15 C-0.99 15 -1.98 15 -3 15 C-3 14.34 -3 13.68 -3 13 C-3.99 13.66 -4.98 14.32 -6 15 C-6.99 15 -7.98 15 -9 15 C-8.798422 13.05943567 -8.56268261 11.12239852 -8.3125 9.1875 C-8.18488281 8.10855469 -8.05726562 7.02960937 -7.92578125 5.91796875 C-7 3 -7 3 -4.54296875 1.11328125 C-2 0 -2 0 0 0 Z " fill="#62342D" transform="translate(46,20)"/>
<path d="M0 0 C0.70132913 6.70019789 1.11044961 13.26257354 1 20 C-1.70879335 21.35439668 -4.00933268 21.06501451 -7 21 C-7 18.03 -7 15.06 -7 12 C-6.67 12 -6.34 12 -6 12 C-6 13.65 -6 15.3 -6 17 C-4.35 17 -2.7 17 -1 17 C-1.99 16.67 -2.98 16.34 -4 16 C-4 13.69 -4 11.38 -4 9 C-3.34 9 -2.68 9 -2 9 C-1.67 7.02 -1.34 5.04 -1 3 C-2.65 3.33 -4.3 3.66 -6 4 C-6 3.01 -6 2.02 -6 1 C-3 0 -3 0 0 0 Z " fill="#64322D" transform="translate(49,62)"/>
<path d="M0 0 C2.31 0 4.62 0 7 0 C7.05391993 1.79133978 7.09275571 3.58313899 7.125 5.375 C7.14820313 6.37273437 7.17140625 7.37046875 7.1953125 8.3984375 C7 11 7 11 5 13 C5 11.35 5 9.7 5 8 C4.34 8 3.68 8 3 8 C3 10.31 3 12.62 3 15 C3.99 14.67 4.98 14.34 6 14 C6 14.66 6 15.32 6 16 C4.35 15.67 2.7 15.34 1 15 C0.67 10.05 0.34 5.1 0 0 Z " fill="#7D4D45" transform="translate(43,85)"/>
<path d="M0 0 C1.98 0 3.96 0 6 0 C6 4.95 6 9.9 6 15 C5.01 15 4.02 15 3 15 C3.33 10.38 3.66 5.76 4 1 C3.34 1 2.68 1 2 1 C2 5.62 2 10.24 2 15 C1.01 15 0.02 15 -1 15 C-1.02693575 12.87506859 -1.04636628 10.75004088 -1.0625 8.625 C-1.07410156 7.44164062 -1.08570312 6.25828125 -1.09765625 5.0390625 C-1 2 -1 2 0 0 Z " fill="#703C32" transform="translate(74,20)"/>
<path d="M0 0 C1.98 0 3.96 0 6 0 C6 3.96 6 7.92 6 12 C3.69 12 1.38 12 -1 12 C-1.33 11.01 -1.66 10.02 -2 9 C-1.34 8.34 -0.68 7.68 0 7 C0.16677282 3.41656024 0.16677282 3.41656024 0 0 Z " fill="#A06558" transform="translate(58,41)"/>
<path d="M0 0 C0.33 0 0.66 0 1 0 C1.495 4.455 1.495 4.455 2 9 C1.34 9.33 0.68 9.66 0 10 C-0.66 9.67 -1.32 9.34 -2 9 C-2 10.65 -2 12.3 -2 14 C-2.33 14 -2.66 14 -3 14 C-3 12.35 -3 10.7 -3 9 C-13.89 8.34 -24.78 7.68 -36 7 C-36 6.67 -36 6.34 -36 6 C-31.50001382 5.97077347 -27.00005235 5.95312518 -22.5 5.9375 C-21.2315625 5.92912109 -19.963125 5.92074219 -18.65625 5.91210938 C-12.33916501 5.89565863 -6.24189628 5.99908986 0 7 C0 4.69 0 2.38 0 0 Z " fill="#894B41" transform="translate(105,77)"/>
<path d="M0 0 C1.98 0 3.96 0 6 0 C6 3.96 6 7.92 6 12 C4.02 12 2.04 12 0 12 C0 8.04 0 4.08 0 0 Z " fill="#803C30" transform="translate(74,40)"/>
<path d="M0 0 C4.29 0 8.58 0 13 0 C12.67 0.99 12.34 1.98 12 3 C12.66 3.33 13.32 3.66 14 4 C14 5.32 14 6.64 14 8 C13.01 8 12.02 8 11 8 C10.67 7.34 10.34 6.68 10 6 C7.42048126 5.30906104 7.42048126 5.30906104 4.4375 4.875 C3.42558594 4.70742187 2.41367188 4.53984375 1.37109375 4.3671875 C0.58863281 4.24601562 -0.19382812 4.12484375 -1 4 C-0.67 2.68 -0.34 1.36 0 0 Z " fill="#B5776A" transform="translate(83,86)"/>
<path d="M0 0 C2 3 2 3 2 6 C1.28137283 5.83923477 0.56274567 5.67846954 -0.17765808 5.51283264 C-2.89557122 5.0189752 -5.39906838 4.84356081 -8.1574707 4.79467773 C-9.65846062 4.7647599 -9.65846062 4.7647599 -11.18977356 4.73423767 C-12.2576561 4.71752518 -13.32553864 4.70081268 -14.42578125 4.68359375 C-15.52850876 4.66281265 -16.63123627 4.64203156 -17.76737976 4.62062073 C-21.28235778 4.55535068 -24.79740912 4.49634505 -28.3125 4.4375 C-30.69857523 4.39429335 -33.08464309 4.35067837 -35.47070312 4.30664062 C-41.31372506 4.1996924 -47.15681958 4.09788445 -53 4 C-53 3.67 -53 3.34 -53 3 C-46.25578759 2.83147955 -39.51140925 2.6716448 -32.7668457 2.51782227 C-30.47285308 2.46448114 -28.17890563 2.40915812 -25.88500977 2.35180664 C-22.58619936 2.26967562 -19.28729168 2.19469321 -15.98828125 2.12109375 C-14.96414627 2.09405869 -13.94001129 2.06702362 -12.88484192 2.03916931 C-11.92422348 2.01907303 -10.96360504 1.99897675 -9.97387695 1.97827148 C-8.71145927 1.94829323 -8.71145927 1.94829323 -7.42353821 1.91770935 C-4.85356562 2.00497214 -2.50363653 2.42972016 0 3 C0 2.01 0 1.02 0 0 Z " fill="#6F3B32" transform="translate(104,102)"/>
<path d="M0 0 C1.98 0 3.96 0 6 0 C6 3.96 6 7.92 6 12 C4.02 12 2.04 12 0 12 C0 8.04 0 4.08 0 0 Z " fill="#894D42" transform="translate(58,64)"/>
<path d="M0 0 C0 7.26 0 14.52 0 22 C-0.33 22 -0.66 22 -1 22 C-1 15.73 -1 9.46 -1 3 C-3.64 3.99 -6.28 4.98 -9 6 C-9 5.34 -9 4.68 -9 4 C-9.99 3.67 -10.98 3.34 -12 3 C-7.44465464 -0.31297844 -6.28991846 0 0 0 Z " fill="#532120" transform="translate(49,37)"/>
<path d="M0 0 C2.31 0 4.62 0 7 0 C7 2.64 7 5.28 7 8 C4.69 8 2.38 8 0 8 C0 5.36 0 2.72 0 0 Z " fill="#4A1821" transform="translate(90,45)"/>
<path d="M0 0 C1.32 0 2.64 0 4 0 C4 3.63 4 7.26 4 11 C3.67 11 3.34 11 3 11 C3 9.35 3 7.7 3 6 C2.34 6 1.68 6 1 6 C1 8.31 1 10.62 1 13 C1.99 12.67 2.98 12.34 4 12 C4 12.66 4 13.32 4 14 C2.35 14 0.7 14 -1 14 C-1.02685938 11.85423363 -1.04633088 9.70837355 -1.0625 7.5625 C-1.07410156 6.36753906 -1.08570313 5.17257813 -1.09765625 3.94140625 C-1 1 -1 1 0 0 Z " fill="#956258" transform="translate(44,65)"/>
<path d="M0 0 C1.32 0.33 2.64 0.66 4 1 C4 5.29 4 9.58 4 14 C2.68 14 1.36 14 0 14 C0 9.38 0 4.76 0 0 Z " fill="#774238" transform="translate(86,21)"/>
<path d="M0 0 C0 4.95 0 9.9 0 15 C-1.65 15.33 -3.3 15.66 -5 16 C-5 13.03 -5 10.06 -5 7 C-4.67 7 -4.34 7 -4 7 C-4 9.31 -4 11.62 -4 14 C-3.34 14 -2.68 14 -2 14 C-2 10.37 -2 6.74 -2 3 C-3.32 3.99 -4.64 4.98 -6 6 C-5.75 4.125 -5.75 4.125 -5 2 C-1.8 0 -1.8 0 0 0 Z " fill="#98675C" transform="translate(48,41)"/>
<path d="M0 0 C0.33 0 0.66 0 1 0 C1.33 2.97 1.66 5.94 2 9 C2.33 9 2.66 9 3 9 C3 6.69 3 4.38 3 2 C3.66 2 4.32 2 5 2 C7.4294516 5.6441774 7.16179575 7.71241272 7 12 C4.69 12 2.38 12 0 12 C-0.33 12.66 -0.66 13.32 -1 14 C-0.67 9.38 -0.34 4.76 0 0 Z " fill="#3D1917" transform="translate(43,91)"/>
<path d="M0 0 C3.63 0.33 7.26 0.66 11 1 C11 2.32 11 3.64 11 5 C7.37 5 3.74 5 0 5 C0 3.35 0 1.7 0 0 Z " fill="#633129" transform="translate(93,123)"/>
<path d="M0 0 C0.99 0 1.98 0 3 0 C2.67 4.95 2.34 9.9 2 15 C1.01 15 0.02 15 -1 15 C-1.10251672 9.87416389 -1.03590199 5.05002222 0 0 Z " fill="#713D33" transform="translate(69,20)"/>
<path d="M0 0 C0.33 0 0.66 0 1 0 C1 4.62 1 9.24 1 14 C1.66 13.67 2.32 13.34 3 13 C3 11.68 3 10.36 3 9 C4.98 9.66 6.96 10.32 9 11 C9 11.99 9 12.98 9 14 C6 15 6 15 -1 15 C-0.67 10.05 -0.34 5.1 0 0 Z " fill="#AA7063" transform="translate(71,63)"/>
<path d="M0 0 C0.99 0 1.98 0 3 0 C2.03644647 10.55808656 2.03644647 10.55808656 1 15 C0.01 15 -0.98 15 -2 15 C-1.03644647 4.44191344 -1.03644647 4.44191344 0 0 Z " fill="#713D33" transform="translate(50,20)"/>
<path d="M0 0 C0.99 0 1.98 0 3 0 C3.95261487 4.76307437 4.08333357 9.1666528 4 14 C3.01 14 2.02 14 1 14 C0.67 9.38 0.34 4.76 0 0 Z " fill="#723E34" transform="translate(100,21)"/>
<path d="M0 0 C2.31 0 4.62 0 7 0 C6.60404157 1.48484412 6.18249294 2.9628831 5.75 4.4375 C5.51796875 5.26121094 5.2859375 6.08492188 5.046875 6.93359375 C4 9 4 9 1.890625 9.78515625 C1.26671875 9.85605469 0.6428125 9.92695312 0 10 C0 8.35 0 6.7 0 5 C0.66 4.67 1.32 4.34 2 4 C1.34 2.68 0.68 1.36 0 0 Z M3 1 C3.33 1.66 3.66 2.32 4 3 C4.33 2.34 4.66 1.68 5 1 C4.34 1 3.68 1 3 1 Z " fill="#A96A5D" transform="translate(53,85)"/>
<path d="M0 0 C0.33 0 0.66 0 1 0 C1.38951724 2.43598091 1.76203193 4.87254794 2.125 7.3125 C2.29322266 8.34793945 2.29322266 8.34793945 2.46484375 9.40429688 C3.2265625 14.66015625 3.2265625 14.66015625 1 18 C0.01 18 -0.98 18 -2 18 C-2.33 16.35 -2.66 14.7 -3 13 C-2.34 12.67 -1.68 12.34 -1 12 C-0.53101037 9.1840151 -0.53101037 9.1840151 -0.375 5.9375 C-0.30023438 4.83277344 -0.22546875 3.72804688 -0.1484375 2.58984375 C-0.09945312 1.73519531 -0.05046875 0.88054688 0 0 Z " fill="#B07366" transform="translate(55,63)"/>
<path d="M0 0 C2.97 0.495 2.97 0.495 6 1 C6 2.98 6 4.96 6 7 C2 7 2 7 0 6 C0 4.02 0 2.04 0 0 Z " fill="#7C3629" transform="translate(90,63)"/>
<path d="M0 0 C1.98 0 3.96 0 6 0 C6 1.98 6 3.96 6 6 C2.25 7.125 2.25 7.125 0 6 C0 4.02 0 2.04 0 0 Z " fill="#8D4A3E" transform="translate(74,63)"/>
<path d="M0 0 C0.33 0 0.66 0 1 0 C1 1.98 1 3.96 1 6 C2.98 6 4.96 6 7 6 C7 7.65 7 9.3 7 11 C4.83125748 10.49396008 3.00032373 10.00016187 1 9 C1.33 10.65 1.66 12.3 2 14 C1.01 13.67 0.02 13.34 -1 13 C-0.67 8.71 -0.34 4.42 0 0 Z " fill="#B48074" transform="translate(73,63)"/>
<path d="M0 0 C0.99 0.33 1.98 0.66 3 1 C3 1.66 3 2.32 3 3 C3.66 3.33 4.32 3.66 5 4 C4.01 4.33 3.02 4.66 2 5 C2.33 5.99 2.66 6.98 3 8 C2.72428861 10.00875442 2.39764263 12.01178687 2 14 C1.34 14 0.68 14 0 14 C0 9.38 0 4.76 0 0 Z M5 1 C5.99 1.495 5.99 1.495 7 2 C6.01 2.495 6.01 2.495 5 3 C5 2.34 5 1.68 5 1 Z " fill="#C89D8D" transform="translate(51,85)"/>
<path d="M0 0 C-0.1875 2.3125 -0.1875 2.3125 -1 5 C-5.03448276 8 -5.03448276 8 -8 8 C-8.33 6.68 -8.66 5.36 -9 4 C-2.25 0 -2.25 0 0 0 Z " fill="#75473E" transform="translate(43,33)"/>
<path d="M0 0 C0.33 0 0.66 0 1 0 C1 2.97 1 5.94 1 9 C2.98 8.67 4.96 8.34 7 8 C7.33 9.32 7.66 10.64 8 12 C5.36 12.33 2.72 12.66 0 13 C0 8.71 0 4.42 0 0 Z " fill="#743E36" transform="translate(41,48)"/>
<path d="M0 0 C1.98 0 3.96 0 6 0 C6 1.98 6 3.96 6 6 C4.02 6 2.04 6 0 6 C0 4.02 0 2.04 0 0 Z " fill="#9B5F53" transform="translate(74,46)"/>
<path d="M0 0 C0.33 0 0.66 0 1 0 C0.67 2.97 0.34 5.94 0 9 C-0.66 9 -1.32 9 -2 9 C-6 4.52941176 -6 4.52941176 -6 2 C-4.35 2 -2.7 2 -1 2 C-0.67 1.34 -0.34 0.68 0 0 Z " fill="#9A6357" transform="translate(104,96)"/>
<path d="M0 0 C0.33 0 0.66 0 1 0 C1.33 2.97 1.66 5.94 2 9 C1.01 9.495 1.01 9.495 0 10 C-0.66 9.67 -1.32 9.34 -2 9 C-2 10.65 -2 12.3 -2 14 C-2.33 14 -2.66 14 -3 14 C-3 12.35 -3 10.7 -3 9 C-5.31 8.67 -7.62 8.34 -10 8 C-10 7.67 -10 7.34 -10 7 C-6.7 7 -3.4 7 0 7 C0 4.69 0 2.38 0 0 Z " fill="#8E584D" transform="translate(105,77)"/>
<path d="M0 0 C1.98 0 3.96 0 6 0 C6 1.65 6 3.3 6 5 C2.25 6.125 2.25 6.125 0 5 C0 3.35 0 1.7 0 0 Z " fill="#8D493C" transform="translate(58,41)"/>
<path d="M0 0 C2.64 0 5.28 0 8 0 C8 1.32 8 2.64 8 4 C5.36 4 2.72 4 0 4 C0 2.68 0 1.36 0 0 Z " fill="#623634" transform="translate(90,40)"/>
<path d="M0 0 C0 1.65 0 3.3 0 5 C-1.32 5 -2.64 5 -4 5 C-5.77409808 6.92022703 -5.77409808 6.92022703 -7 9 C-7.3125 6.1875 -7.3125 6.1875 -7 3 C-4.61107499 1.11400657 -3.08148442 0 0 0 Z " fill="#683B33" transform="translate(46,20)"/>
<path d="M0 0 C2.31 0 4.62 0 7 0 C7.05391993 1.79133978 7.09275571 3.58313899 7.125 5.375 C7.14820313 6.37273437 7.17140625 7.37046875 7.1953125 8.3984375 C7 11 7 11 5 13 C5.33 9.37 5.66 5.74 6 2 C1.79819816 2.5739739 1.79819816 2.5739739 0 6 C0 4.02 0 2.04 0 0 Z " fill="#6A362E" transform="translate(43,85)"/>
<path d="M0 0 C2.64 0 5.28 0 8 0 C8 1.65 8 3.3 8 5 C6.35 5 4.7 5 3 5 C3 3.68 3 2.36 3 1 C2.01 0.67 1.02 0.34 0 0 Z " fill="#8A4A3D" transform="translate(72,86)"/>
<path d="M0 0 C0.99 0 1.98 0 3 0 C3 5.94 3 11.88 3 18 C2.67 18 2.34 18 2 18 C2 13.38 2 8.76 2 4 C1.34 4 0.68 4 0 4 C0 2.68 0 1.36 0 0 Z " fill="#4D211D" transform="translate(89,109)"/>
<path d="M0 0 C1.65 0 3.3 0 5 0 C5 1.98 5 3.96 5 6 C2.69 6 0.38 6 -2 6 C-2 5.67 -2 5.34 -2 5 C-0.02 5 1.96 5 4 5 C2.68 4.67 1.36 4.34 0 4 C0 2.68 0 1.36 0 0 Z " fill="#58212C" transform="translate(92,47)"/>
<path d="M0 0 C1.65 0 3.3 0 5 0 C4.01 2.97 3.02 5.94 2 9 C1.34 9 0.68 9 0 9 C0.185625 8.2575 0.37125 7.515 0.5625 6.75 C0.99203108 4.05009037 0.85122974 2.55368923 0 0 Z " fill="#774238" transform="translate(54,106)"/>
<path d="M0 0 C0.99 0 1.98 0 3 0 C3 1.32 3 2.64 3 4 C4.32 4.33 5.64 4.66 7 5 C7 5.66 7 6.32 7 7 C4.61435923 6.42415568 2.33317216 5.77772405 0 5 C0 3.35 0 1.7 0 0 Z " fill="#5C2017" transform="translate(72,87)"/>
<path d="M0 0 C0.66 0 1.32 0 2 0 C2.66 3.3 3.32 6.6 4 10 C3.01 10 2.02 10 1 10 C0.67 6.7 0.34 3.4 0 0 Z " fill="#7E483E" transform="translate(108,26)"/>
<path d="M0 0 C0 0.66 0 1.32 0 2 C-0.66 2 -1.32 2 -2 2 C-2 2.66 -2 3.32 -2 4 C-3.32 4 -4.64 4 -6 4 C-6 2.68 -6 1.36 -6 0 C-3.50907189 -1.24546405 -2.58919267 -0.7767578 0 0 Z " fill="#A66C5F" transform="translate(57,99)"/>
<path d="M0 0 C1.65 0 3.3 0 5 0 C4.67 4.29 4.34 8.58 4 13 C3.67 13 3.34 13 3 13 C3 9.37 3 5.74 3 2 C1.35 2 -0.3 2 -2 2 C-1.34 1.34 -0.68 0.68 0 0 Z " fill="#764F46" transform="translate(103,60)"/>
<path d="M0 0 C0.66 0 1.32 0 2 0 C2.33 2.31 2.66 4.62 3 7 C1.68 7 0.36 7 -1 7 C-0.67 4.69 -0.34 2.38 0 0 Z " fill="#410919" transform="translate(60,69)"/>
<path d="M0 0 C2.31 0.66 4.62 1.32 7 2 C7 2.66 7 3.32 7 4 C4.36 4 1.72 4 -1 4 C-0.67 2.68 -0.34 1.36 0 0 Z " fill="#49150E" transform="translate(73,96)"/>
<path d="M0 0 C2.475 0.495 2.475 0.495 5 1 C5.33 2.32 5.66 3.64 6 5 C3.5625 4.1875 3.5625 4.1875 1 3 C0.67 2.01 0.34 1.02 0 0 Z " fill="#673A32" transform="translate(44,122)"/>
<path d="M0 0 C0.66 0 1.32 0 2 0 C2.1875 3.375 2.1875 3.375 2 7 C1.01 7.66 0.02 8.32 -1 9 C-1.125 2.25 -1.125 2.25 0 0 Z " fill="#703D33" transform="translate(65,20)"/>
<path d="M0 0 C2 3 2 3 2 6 C-2.455 5.01 -2.455 5.01 -7 4 C-7 3.67 -7 3.34 -7 3 C-4.69 3 -2.38 3 0 3 C0 2.01 0 1.02 0 0 Z " fill="#5A2D27" transform="translate(104,102)"/>
<path d="M0 0 C2.31 0.33 4.62 0.66 7 1 C7 1.66 7 2.32 7 3 C5.1875 3.625 5.1875 3.625 3 4 C2.01 3.34 1.02 2.68 0 2 C0 1.34 0 0.68 0 0 Z " fill="#603934" transform="translate(77,122)"/>
<path d="M0 0 C1.98 0.66 3.96 1.32 6 2 C6 2.66 6 3.32 6 4 C4.02 4 2.04 4 0 4 C0 2.68 0 1.36 0 0 Z " fill="#722E21" transform="translate(90,73)"/>
<path d="M0 0 C1.98 0.66 3.96 1.32 6 2 C6 2.66 6 3.32 6 4 C4.02 4 2.04 4 0 4 C0 2.68 0 1.36 0 0 Z " fill="#793427" transform="translate(74,72)"/>
</svg>
